<?xml version="1.0" encoding="UTF-8"?>
<!DOCTYPE svg  PUBLIC '-//W3C//DTD SVG 1.1//EN'  'http://www.w3.org/Graphics/SVG/1.1/DTD/svg11.dtd'>
<svg clip-rule="evenodd" fill-rule="evenodd" image-rendering="optimizeQuality" shape-rendering="geometricPrecision" text-rendering="geometricPrecision" viewBox="0 0 2048 2048" xml:space="preserve" xmlns="http://www.w3.org/2000/svg">
 <defs>
  <style type="text/css">
   <![CDATA[
    .fil3 {fill:none}
    .fil1 {fill:#66BB6A}
    .fil2 {fill:#212121;fill-rule:nonzero}
    .fil0 {fill:#66BB6A;fill-rule:nonzero}
   ]]>
  </style>
 </defs>
 
  
  
   <path class="fil0" d="m703.09 1107h641.83c13.254 0 24 10.746 24 24v309.03c0 13.254-10.746 24-24 24h-641.83c-13.254 0-24-10.746-24-24v-309.03c0-13.254 10.746-24 24-24zm617.83 48h-593.83v261.03h593.83v-261.03z"/>
   <path class="fil0" d="m750.4 1032.7c0 13.254 10.746 24 24 24s24-10.746 24-24v-175.14c0-62.015 25.388-118.41 66.288-159.31 40.9-40.9 97.297-66.288 159.31-66.288h0.0011811c62.014 0 118.41 25.388 159.31 66.289 40.902 40.9 66.289 97.297 66.289 159.31v273.37c0 13.254 10.746 24 24 24s24-10.746 24-24v-273.37c0-75.265-30.774-143.67-80.352-193.25-49.577-49.578-117.98-80.352-193.25-80.352h-0.0011811c-75.265 0-143.67 30.774-193.25 80.35-49.577 49.577-80.35 117.98-80.35 193.25v175.14z"/>
   <path class="fil1" d="m1024 1206.8c20.536 0 37.184 16.648 37.184 37.185 0 12.957-6.6284 24.363-16.677 31.019v89.172h-41.011v-89.171c-10.05-6.6567-16.678-18.064-16.678-31.02 0-20.537 16.648-37.185 37.184-37.185z"/>
  
  <path class="fil2" d="m1024 256c212.08 0 404.08 85.962 543.06 224.94 138.98 138.98 224.94 330.98 224.94 543.06s-85.962 404.08-224.94 543.06c-138.98 138.98-330.98 224.94-543.06 224.94s-404.08-85.962-543.06-224.94c-138.98-138.98-224.94-330.98-224.94-543.06s85.962-404.08 224.94-543.06c138.98-138.98 330.98-224.94 543.06-224.94zm509.12 258.88c-130.29-130.29-310.3-210.88-509.12-210.88-198.82 0-378.83 80.589-509.12 210.88s-210.88 310.3-210.88 509.12c0 198.82 80.589 378.83 210.88 509.12s310.3 210.88 509.12 210.88c198.82 0 378.83-80.589 509.12-210.88s210.88-310.3 210.88-509.12c0-198.82-80.589-378.83-210.88-509.12z"/>
 
 <rect class="fil3" width="2048" height="2048"/>
</svg>
